<?xml version="1.0" encoding="UTF-8"?>
<!DOCTYPE svg PUBLIC "-//W3C//DTD SVG 1.1//EN" "http://www.w3.org/Graphics/SVG/1.1/DTD/svg11.dtd">
<svg xmlns="http://www.w3.org/2000/svg" version="1.1" width="793px" height="794px" style="shape-rendering:geometricPrecision; text-rendering:geometricPrecision; image-rendering:optimizeQuality; fill-rule:evenodd; clip-rule:evenodd" xmlns:xlink="http://www.w3.org/1999/xlink">
<g><path style="opacity:0.975" fill="#fefffe" d="M 324.5,-0.5 C 477.167,-0.5 629.833,-0.5 782.5,-0.5C 786.093,1.25648 788.926,3.92315 791,7.5C 791.996,174.555 791.663,341.555 790,508.5C 787.261,512.619 783.427,514.786 778.5,515C 661.167,515.333 543.833,515.667 426.5,516C 409.833,532.667 393.167,549.333 376.5,566C 366.747,569.867 359.913,567.033 356,557.5C 355.5,543.504 355.333,529.504 355.5,515.5C 345.111,515.87 334.777,515.37 324.5,514C 321.333,512.167 318.833,509.667 317,506.5C 316.333,340.5 316.333,174.5 317,8.5C 318.642,4.69966 321.142,1.69966 324.5,-0.5 Z M 343.5,26.5 C 483.833,26.5 624.167,26.5 764.5,26.5C 764.5,180.167 764.5,333.833 764.5,487.5C 649.833,487.333 535.166,487.5 420.5,488C 418.392,488.36 416.392,489.027 414.5,490C 404,500.5 393.5,511 383,521.5C 382.667,513.167 382.333,504.833 382,496.5C 379.571,491.734 375.737,488.9 370.5,488C 361.506,487.5 352.506,487.334 343.5,487.5C 343.5,333.833 343.5,180.167 343.5,26.5 Z M 527.5,98.5 C 538.632,109.131 549.632,119.965 560.5,131C 549.505,131.5 538.505,131.667 527.5,131.5C 527.5,120.5 527.5,109.5 527.5,98.5 Z M 640.5,277.5 C 663.048,276.183 677.882,286.183 685,307.5C 686.3,314.771 686.8,322.104 686.5,329.5C 660.167,329.5 633.833,329.5 607.5,329.5C 604.118,302.627 615.118,285.294 640.5,277.5 Z M 581.5,356.5 C 625.167,356.5 668.833,356.5 712.5,356.5C 712.5,382.833 712.5,409.167 712.5,435.5C 668.833,435.5 625.167,435.5 581.5,435.5C 581.5,409.167 581.5,382.833 581.5,356.5 Z"/></g>
<g><path style="opacity:0.977" fill="#fefffe" d="M 377.5,52.5 C 425.56,52.0144 473.56,52.5144 521.5,54C 549,81.5 576.5,109 604,136.5C 604.667,137.833 605.333,139.167 606,140.5C 606.5,173.165 606.667,205.832 606.5,238.5C 597.582,238.817 588.749,238.484 580,237.5C 579.5,211.169 579.333,184.835 579.5,158.5C 556.498,158.667 533.498,158.5 510.5,158C 505.572,156.073 502.406,152.573 501,147.5C 500.5,124.836 500.333,102.169 500.5,79.5C 465.833,79.5 431.167,79.5 396.5,79.5C 396.5,176.167 396.5,272.833 396.5,369.5C 440.167,369.5 483.833,369.5 527.5,369.5C 527.5,378.5 527.5,387.5 527.5,396.5C 477.832,396.667 428.166,396.5 378.5,396C 374.725,394.558 371.892,392.058 370,388.5C 369.333,279.5 369.333,170.5 370,61.5C 371.642,57.6997 374.142,54.6997 377.5,52.5 Z M 527.5,98.5 C 527.5,109.5 527.5,120.5 527.5,131.5C 538.505,131.667 549.505,131.5 560.5,131C 549.632,119.965 538.632,109.131 527.5,98.5 Z"/></g>
<g><path style="opacity:1" fill="#fefffe" d="M 421.5,131.5 C 439.167,131.5 456.833,131.5 474.5,131.5C 474.5,140.5 474.5,149.5 474.5,158.5C 456.833,158.5 439.167,158.5 421.5,158.5C 421.5,149.5 421.5,140.5 421.5,131.5 Z"/></g>
<g><path style="opacity:1" fill="#fefffe" d="M 421.5,184.5 C 439.167,184.5 456.833,184.5 474.5,184.5C 474.5,193.5 474.5,202.5 474.5,211.5C 456.833,211.5 439.167,211.5 421.5,211.5C 421.5,202.5 421.5,193.5 421.5,184.5 Z"/></g>
<g><path style="opacity:1" fill="#fefffe" d="M 501.5,184.5 C 519.167,184.5 536.833,184.5 554.5,184.5C 554.5,193.5 554.5,202.5 554.5,211.5C 536.833,211.5 519.167,211.5 501.5,211.5C 501.5,202.5 501.5,193.5 501.5,184.5 Z"/></g>
<g><path style="opacity:1" fill="#fefffe" d="M 421.5,237.5 C 448.167,237.5 474.833,237.5 501.5,237.5C 501.5,246.167 501.5,254.833 501.5,263.5C 474.833,263.5 448.167,263.5 421.5,263.5C 421.5,254.833 421.5,246.167 421.5,237.5 Z"/></g>
<g><path style="opacity:1" fill="#fefffe" d="M 527.5,237.5 C 536.5,237.5 545.5,237.5 554.5,237.5C 554.5,246.167 554.5,254.833 554.5,263.5C 545.5,263.5 536.5,263.5 527.5,263.5C 527.5,254.833 527.5,246.167 527.5,237.5 Z"/></g>
<g><path style="opacity:0.981" fill="#fefffe" d="M 636.5,250.5 C 673.414,248.026 698.248,264.026 711,298.5C 713.128,308.717 713.961,319.05 713.5,329.5C 718.844,329.334 724.177,329.501 729.5,330C 734.245,331.115 737.412,333.948 739,338.5C 739.667,376.833 739.667,415.167 739,453.5C 737.558,457.275 735.058,460.108 731.5,462C 675.5,462.667 619.5,462.667 563.5,462C 560.438,460.939 557.938,459.106 556,456.5C 554.346,417.251 554.012,377.918 555,338.5C 556.36,335.265 558.527,332.765 561.5,331C 567.742,329.63 574.075,329.13 580.5,329.5C 577.689,299.3 588.689,275.8 613.5,259C 620.88,255.044 628.547,252.211 636.5,250.5 Z M 640.5,277.5 C 615.118,285.294 604.118,302.627 607.5,329.5C 633.833,329.5 660.167,329.5 686.5,329.5C 686.8,322.104 686.3,314.771 685,307.5C 677.882,286.183 663.048,276.183 640.5,277.5 Z M 581.5,356.5 C 581.5,382.833 581.5,409.167 581.5,435.5C 625.167,435.5 668.833,435.5 712.5,435.5C 712.5,409.167 712.5,382.833 712.5,356.5C 668.833,356.5 625.167,356.5 581.5,356.5 Z"/></g>
<g><path style="opacity:0.993" fill="#24d07c" d="M -0.5,784.5 C -0.5,737.167 -0.5,689.833 -0.5,642.5C 1.31481,638.521 4.31481,635.688 8.5,634C 18.4944,633.5 28.4944,633.334 38.5,633.5C 38.5,624.833 38.5,616.167 38.5,607.5C 28.4944,607.666 18.4944,607.5 8.5,607C 4.31481,605.312 1.31481,602.479 -0.5,598.5C -0.5,551.5 -0.5,504.5 -0.5,457.5C 1.31481,453.521 4.31481,450.688 8.5,449C 18.4944,448.5 28.4944,448.334 38.5,448.5C 38.5,439.833 38.5,431.167 38.5,422.5C 28.8276,422.666 19.1609,422.5 9.5,422C 4.74518,420.739 1.41184,417.905 -0.5,413.5C -0.5,366.5 -0.5,319.5 -0.5,272.5C 1.25648,268.907 3.92315,266.074 7.5,264C 101.833,263.5 196.166,263.333 290.5,263.5C 290.817,272.418 290.484,281.251 289.5,290C 201.834,290.5 114.167,290.667 26.5,290.5C 26.5,325.5 26.5,360.5 26.5,395.5C 114.5,395.5 202.5,395.5 290.5,395.5C 290.5,404.5 290.5,413.5 290.5,422.5C 233.167,422.5 175.833,422.5 118.5,422.5C 118.5,431.167 118.5,439.833 118.5,448.5C 175.833,448.5 233.167,448.5 290.5,448.5C 290.817,457.418 290.484,466.251 289.5,475C 201.834,475.5 114.167,475.667 26.5,475.5C 26.5,510.5 26.5,545.5 26.5,580.5C 166.833,580.5 307.167,580.5 447.5,580.5C 447.5,567.167 447.5,553.833 447.5,540.5C 456.5,540.5 465.5,540.5 474.5,540.5C 474.667,559.836 474.5,579.17 474,598.5C 472.5,602.667 469.667,605.5 465.5,607C 455.506,607.5 445.506,607.666 435.5,607.5C 435.5,616.167 435.5,624.833 435.5,633.5C 445.172,633.334 454.839,633.5 464.5,634C 469.235,635.068 472.402,637.901 474,642.5C 474.667,689.5 474.667,736.5 474,783.5C 472.558,787.275 470.058,790.108 466.5,792C 313.833,792.667 161.167,792.667 8.5,792C 4.69966,790.358 1.69966,787.858 -0.5,784.5 Z M 65.5,422.5 C 74.1667,422.5 82.8333,422.5 91.5,422.5C 91.5,431.167 91.5,439.833 91.5,448.5C 82.8333,448.5 74.1667,448.5 65.5,448.5C 65.5,439.833 65.5,431.167 65.5,422.5 Z M 65.5,607.5 C 74.1667,607.5 82.8333,607.5 91.5,607.5C 91.5,616.167 91.5,624.833 91.5,633.5C 82.8333,633.5 74.1667,633.5 65.5,633.5C 65.5,624.833 65.5,616.167 65.5,607.5 Z M 118.5,607.5 C 197.5,607.5 276.5,607.5 355.5,607.5C 355.5,616.167 355.5,624.833 355.5,633.5C 276.5,633.5 197.5,633.5 118.5,633.5C 118.5,624.833 118.5,616.167 118.5,607.5 Z M 382.5,607.5 C 391.167,607.5 399.833,607.5 408.5,607.5C 408.5,616.167 408.5,624.833 408.5,633.5C 399.833,633.5 391.167,633.5 382.5,633.5C 382.5,624.833 382.5,616.167 382.5,607.5 Z M 26.5,660.5 C 166.833,660.5 307.167,660.5 447.5,660.5C 447.5,695.5 447.5,730.5 447.5,765.5C 307.167,765.5 166.833,765.5 26.5,765.5C 26.5,730.5 26.5,695.5 26.5,660.5 Z"/></g>
<g><path style="opacity:1" fill="#fefffe" d="M 421.5,290.5 C 430.5,290.5 439.5,290.5 448.5,290.5C 448.5,299.167 448.5,307.833 448.5,316.5C 439.5,316.5 430.5,316.5 421.5,316.5C 421.5,307.833 421.5,299.167 421.5,290.5 Z"/></g>
<g><path style="opacity:1" fill="#fefffe" d="M 474.5,290.5 C 501.167,290.5 527.833,290.5 554.5,290.5C 554.5,299.167 554.5,307.833 554.5,316.5C 527.833,316.5 501.167,316.5 474.5,316.5C 474.5,307.833 474.5,299.167 474.5,290.5 Z"/></g>
<g><path style="opacity:1" fill="#25d17c" d="M 52.5,329.5 C 87.5,329.5 122.5,329.5 157.5,329.5C 157.5,338.5 157.5,347.5 157.5,356.5C 122.5,356.5 87.5,356.5 52.5,356.5C 52.5,347.5 52.5,338.5 52.5,329.5 Z"/></g>
<g><path style="opacity:0.97" fill="#25d07c" d="M 192.5,329.5 C 207.223,328.467 213.056,334.801 210,348.5C 206.345,355.738 200.512,358.238 192.5,356C 184.958,352.061 182.458,345.895 185,337.5C 186.69,333.979 189.19,331.312 192.5,329.5 Z"/></g>
<g><path style="opacity:0.97" fill="#25d07c" d="M 245.5,329.5 C 260.223,328.467 266.056,334.801 263,348.5C 259.345,355.738 253.512,358.238 245.5,356C 237.958,352.061 235.458,345.895 238,337.5C 239.69,333.979 242.19,331.312 245.5,329.5 Z"/></g>
<g><path style="opacity:1" fill="#25d17c" d="M 52.5,514.5 C 87.5,514.5 122.5,514.5 157.5,514.5C 157.5,523.5 157.5,532.5 157.5,541.5C 122.5,541.5 87.5,541.5 52.5,541.5C 52.5,532.5 52.5,523.5 52.5,514.5 Z"/></g>
<g><path style="opacity:0.97" fill="#25d07c" d="M 192.5,514.5 C 207.223,513.467 213.056,519.801 210,533.5C 206.345,540.738 200.512,543.238 192.5,541C 184.958,537.061 182.458,530.895 185,522.5C 186.69,518.979 189.19,516.312 192.5,514.5 Z"/></g>
<g><path style="opacity:0.97" fill="#25d07c" d="M 245.5,514.5 C 260.223,513.467 266.056,519.801 263,533.5C 259.345,540.738 253.512,543.238 245.5,541C 237.958,537.061 235.458,530.895 238,522.5C 239.69,518.979 242.19,516.312 245.5,514.5 Z"/></g>
<g><path style="opacity:1" fill="#25d17c" d="M 52.5,699.5 C 87.5,699.5 122.5,699.5 157.5,699.5C 157.5,708.5 157.5,717.5 157.5,726.5C 122.5,726.5 87.5,726.5 52.5,726.5C 52.5,717.5 52.5,708.5 52.5,699.5 Z"/></g>
<g><path style="opacity:0.97" fill="#25d07c" d="M 192.5,699.5 C 207.223,698.467 213.056,704.801 210,718.5C 206.345,725.738 200.512,728.238 192.5,726C 184.958,722.061 182.458,715.895 185,707.5C 186.69,703.979 189.19,701.312 192.5,699.5 Z"/></g>
<g><path style="opacity:0.97" fill="#25d07c" d="M 245.5,699.5 C 260.223,698.467 266.056,704.801 263,718.5C 259.345,725.738 253.512,728.238 245.5,726C 237.958,722.061 235.458,715.895 238,707.5C 239.69,703.979 242.19,701.312 245.5,699.5 Z"/></g>
</svg>
