<?xml version="1.0" encoding="UTF-8" ?>
<!DOCTYPE svg PUBLIC "-//W3C//DTD SVG 1.1//EN" "http://www.w3.org/Graphics/SVG/1.1/DTD/svg11.dtd">
<svg width="793pt" height="794pt" viewBox="0 0 793 794" version="1.1" xmlns="http://www.w3.org/2000/svg">
<g id="#ffffffff">
<path fill="#ffffff" opacity="1.00" d=" M 329.75 0.00 L 779.55 0.00 C 784.13 0.51 788.46 3.19 790.65 7.29 C 792.51 11.26 791.91 15.74 792.00 19.98 C 791.99 180.34 792.01 340.70 792.00 501.06 C 792.08 503.70 791.19 506.19 790.38 508.65 C 787.76 511.83 784.34 514.90 779.99 515.04 C 772.34 515.52 764.67 515.12 757.01 515.25 C 647.22 515.27 537.43 515.20 427.65 515.29 C 410.97 532.09 394.21 548.81 377.44 565.51 C 369.84 571.64 356.99 565.73 356.67 555.98 C 356.20 542.42 356.74 528.83 356.40 515.26 C 347.63 515.17 338.85 515.40 330.09 515.15 C 322.72 515.39 316.60 508.32 317.01 501.14 C 317.00 338.71 316.99 176.29 317.01 13.86 C 316.75 6.83 322.56 0.07 329.75 0.00 M 343.50 26.50 C 343.50 128.67 343.50 230.83 343.50 333.00 C 343.60 384.92 343.31 436.85 343.65 488.77 C 352.46 488.76 361.28 488.70 370.10 488.79 C 376.97 488.72 382.84 495.00 382.95 501.75 C 383.07 508.83 382.96 515.91 383.00 522.99 C 393.34 512.67 403.66 502.33 413.99 492.01 C 416.60 489.35 420.45 488.64 424.04 488.73 C 537.89 488.81 651.73 488.67 765.58 488.80 C 765.39 334.70 765.55 180.60 765.50 26.50 C 624.83 26.50 484.17 26.50 343.50 26.50 Z" />
<path fill="#ffffff" opacity="1.00" d=" M 370.00 66.98 C 369.71 59.94 375.50 53.00 382.75 53.04 C 426.87 52.94 471.00 53.04 515.13 52.99 C 521.39 52.99 525.61 58.25 529.47 62.46 C 553.82 86.82 578.17 111.18 602.54 135.52 C 605.23 138.29 607.20 142.00 607.00 145.96 C 607.00 176.72 607.00 207.49 607.00 238.25 C 598.25 238.24 589.51 238.28 580.77 238.23 C 580.73 211.72 580.75 185.21 580.76 158.70 C 558.82 158.82 536.87 158.71 514.93 158.76 C 508.07 158.99 501.77 152.89 501.74 146.04 C 501.78 123.83 501.70 101.62 501.78 79.41 C 466.60 79.71 431.41 79.26 396.24 79.64 C 396.25 176.62 396.28 273.61 396.22 370.59 C 440.14 370.37 484.07 370.57 527.99 370.49 C 528.01 379.33 527.99 388.16 528.00 397.00 C 479.99 397.00 431.99 397.00 383.98 397.00 C 378.83 397.16 373.88 394.23 371.36 389.79 C 369.63 386.10 370.02 381.96 370.00 378.01 C 370.00 274.33 370.00 170.65 370.00 66.98 M 528.00 98.01 C 528.00 109.50 528.00 121.00 528.00 132.50 C 539.40 132.52 550.81 132.46 562.21 132.53 C 550.70 121.12 539.53 109.40 528.00 98.01 Z" />
<path fill="#ffffff" opacity="1.00" d=" M 422.00 132.00 C 439.67 132.00 457.33 132.00 475.00 132.00 C 475.00 141.00 475.00 150.00 475.00 159.00 C 457.33 159.00 439.67 159.00 422.00 159.00 C 422.00 150.00 422.00 141.00 422.00 132.00 Z" />
<path fill="#ffffff" opacity="1.00" d=" M 422.00 185.00 C 439.67 185.00 457.33 185.00 475.00 185.00 C 475.00 194.00 475.00 203.00 475.00 212.00 C 457.33 212.00 439.67 212.00 422.00 212.00 C 422.00 203.00 422.00 194.00 422.00 185.00 Z" />
<path fill="#ffffff" opacity="1.00" d=" M 502.00 185.00 C 519.67 185.00 537.33 185.00 555.00 185.00 C 555.00 194.00 555.00 203.00 555.00 212.00 C 537.33 212.00 519.67 212.00 502.00 212.00 C 502.00 203.00 502.00 194.00 502.00 185.00 Z" />
<path fill="#ffffff" opacity="1.00" d=" M 422.00 238.00 C 448.67 238.00 475.33 238.00 502.00 238.00 C 502.00 246.67 502.00 255.33 502.00 264.00 C 475.33 264.00 448.67 264.00 422.00 264.00 C 422.00 255.33 422.00 246.67 422.00 238.00 Z" />
<path fill="#ffffff" opacity="1.00" d=" M 528.00 238.00 C 537.00 238.00 546.00 238.00 555.00 238.00 C 555.00 246.67 555.00 255.33 555.00 264.00 C 546.00 264.00 537.00 264.00 528.00 264.00 C 528.00 255.33 528.00 246.67 528.00 238.00 Z" />
<path fill="#ffffff" opacity="1.00" d=" M 626.36 254.46 C 642.00 249.18 659.53 250.00 674.60 256.75 C 692.28 264.76 706.08 280.73 711.16 299.50 C 714.21 309.55 713.41 320.15 713.50 330.50 C 720.59 331.06 728.58 328.75 734.81 333.24 C 738.40 335.87 740.21 340.53 739.99 344.92 C 740.01 379.63 739.99 414.34 740.00 449.05 C 740.27 456.09 734.47 463.00 727.22 462.96 C 674.47 463.05 621.71 462.98 568.95 463.00 C 561.90 463.27 554.98 457.46 555.04 450.21 C 554.95 414.77 555.02 379.32 555.00 343.88 C 554.83 337.43 560.07 331.23 566.56 330.67 C 571.52 330.25 576.52 330.62 581.50 330.50 C 581.51 324.97 581.47 319.45 581.50 313.93 C 582.25 302.10 585.75 290.24 592.66 280.50 C 600.33 268.18 612.79 259.25 626.36 254.46 M 629.90 281.53 C 620.53 286.63 612.53 295.11 609.63 305.56 C 607.14 313.65 607.96 322.20 607.65 330.54 C 634.14 330.45 660.63 330.51 687.12 330.51 C 687.30 323.58 687.57 316.57 686.37 309.72 C 683.53 294.02 670.31 280.77 654.53 278.20 C 646.26 276.55 637.49 277.96 629.90 281.53 M 581.50 357.00 C 581.50 383.50 581.50 410.00 581.50 436.50 C 625.50 436.50 669.50 436.50 713.50 436.50 C 713.50 410.00 713.50 383.50 713.50 357.00 C 669.50 357.00 625.50 357.00 581.50 357.00 Z" />
<path fill="#ffffff" opacity="1.00" d=" M 422.00 291.00 C 431.00 291.00 440.00 291.00 449.00 291.00 C 449.00 299.67 449.00 308.33 449.00 317.00 C 440.00 317.00 431.00 317.00 422.00 317.00 C 422.00 308.33 422.00 299.67 422.00 291.00 Z" />
<path fill="#ffffff" opacity="1.00" d=" M 475.00 291.00 C 501.67 291.00 528.33 291.00 555.00 291.00 C 555.00 299.67 555.00 308.33 555.00 317.00 C 528.33 317.00 501.67 317.00 475.00 317.00 C 475.00 308.33 475.00 299.67 475.00 291.00 Z" />
</g>
<g id="#25d17dff">
<path fill="#25d17d" opacity="1.00" d=" M 0.00 276.54 C 0.52 269.55 6.73 263.47 13.90 264.01 C 106.02 263.99 198.13 264.00 290.25 264.00 C 290.20 272.83 290.36 281.67 290.16 290.50 C 202.27 290.50 114.39 290.49 26.50 290.50 C 26.47 325.70 26.55 360.90 26.46 396.10 C 29.98 396.29 33.51 396.28 37.04 396.25 C 121.45 396.24 205.87 396.27 290.29 396.24 C 290.22 405.07 290.22 413.91 290.29 422.75 C 233.11 422.76 175.94 422.72 118.77 422.77 C 118.74 431.59 118.74 440.41 118.77 449.23 C 175.94 449.27 233.11 449.25 290.28 449.24 C 290.16 457.99 290.37 466.75 290.16 475.50 C 202.27 475.50 114.39 475.49 26.50 475.50 C 26.50 510.83 26.49 546.17 26.50 581.50 C 167.17 581.50 307.83 581.50 448.50 581.50 C 448.49 568.23 448.53 554.97 448.48 541.70 C 457.32 541.81 466.16 541.72 475.00 541.75 C 474.99 559.19 475.03 576.62 474.98 594.06 C 475.30 600.86 469.85 607.50 462.89 607.71 C 453.75 607.80 444.61 607.76 435.48 607.69 C 435.50 616.50 435.53 625.30 435.46 634.10 C 444.69 634.56 453.95 633.89 463.18 634.45 C 469.97 634.84 475.28 641.28 474.99 647.96 C 475.02 691.29 474.98 734.61 475.01 777.94 C 475.19 782.23 473.82 786.69 470.52 789.58 C 467.88 792.42 463.78 793.05 460.08 793.01 C 311.37 792.98 162.67 793.03 13.97 792.99 C 6.96 793.27 0.19 787.60 0.00 780.43 L 0.00 646.54 C 0.43 640.07 5.94 634.69 12.40 634.35 C 21.43 634.12 30.48 634.27 39.52 634.31 C 39.50 625.51 39.46 616.71 39.55 607.91 C 30.12 607.47 20.66 607.99 11.23 607.66 C 5.09 607.07 0.52 601.39 0.00 595.44 L 0.00 461.53 C 0.45 455.25 5.67 449.59 12.07 449.29 C 21.22 449.19 30.37 449.23 39.52 449.31 C 39.50 440.50 39.46 431.70 39.55 422.91 C 30.29 422.42 21.01 423.12 11.76 422.54 C 5.46 422.14 0.49 416.59 0.00 410.44 L 0.00 276.54 M 66.00 422.75 C 66.00 431.58 66.00 440.42 66.00 449.25 C 74.74 449.24 83.49 449.27 92.23 449.23 C 92.27 440.41 92.26 431.59 92.23 422.77 C 83.49 422.72 74.75 422.76 66.00 422.75 M 66.00 607.75 C 66.00 616.58 66.00 625.41 66.00 634.25 C 74.75 634.24 83.49 634.28 92.23 634.23 C 92.26 625.41 92.27 616.59 92.23 607.77 C 83.49 607.72 74.75 607.76 66.00 607.75 M 118.77 607.77 C 118.74 616.59 118.74 625.41 118.77 634.23 C 197.92 634.27 277.08 634.26 356.23 634.23 C 356.26 625.41 356.27 616.59 356.23 607.77 C 277.07 607.74 197.92 607.73 118.77 607.77 M 382.77 607.77 C 382.73 616.59 382.74 625.41 382.77 634.23 C 391.51 634.28 400.25 634.24 409.00 634.25 C 409.00 625.42 409.00 616.58 409.00 607.75 C 400.25 607.76 391.51 607.72 382.77 607.77 M 26.50 766.50 C 167.17 766.51 307.83 766.50 448.50 766.50 C 448.55 731.32 448.42 696.14 448.56 660.97 C 425.06 660.46 401.52 660.89 378.00 660.75 C 260.82 660.69 143.64 660.86 26.47 660.67 C 26.54 695.94 26.47 731.22 26.50 766.50 Z" />
<path fill="#25d17d" opacity="1.00" d=" M 53.00 330.00 C 88.00 330.00 123.00 330.00 158.00 330.00 C 158.00 339.00 158.00 348.00 158.00 357.00 C 123.00 357.00 88.00 357.00 53.00 357.00 C 53.00 348.00 53.00 339.00 53.00 330.00 Z" />
<path fill="#25d17d" opacity="1.00" d=" M 194.43 330.58 C 202.33 327.84 211.08 334.86 210.98 343.00 C 211.63 350.59 204.64 357.83 196.96 356.98 C 189.26 356.50 183.59 348.31 185.29 340.89 C 186.13 336.14 189.79 331.93 194.43 330.58 Z" />
<path fill="#25d17d" opacity="1.00" d=" M 247.43 330.58 C 255.34 327.84 264.09 334.87 263.98 343.02 C 264.62 350.62 257.60 357.86 249.92 356.97 C 242.65 356.48 237.05 349.07 238.14 341.94 C 238.59 336.77 242.45 332.03 247.43 330.58 Z" />
<path fill="#25d17d" opacity="1.00" d=" M 53.00 515.00 C 88.00 515.00 123.00 515.00 158.00 515.00 C 158.00 524.00 158.00 533.00 158.00 542.00 C 123.00 542.00 88.00 542.00 53.00 542.00 C 53.00 533.00 53.00 524.00 53.00 515.00 Z" />
<path fill="#25d17d" opacity="1.00" d=" M 194.39 515.60 C 202.29 512.82 211.07 519.83 210.98 527.98 C 211.64 535.60 204.59 542.88 196.89 541.97 C 189.20 541.44 183.57 533.23 185.30 525.82 C 186.16 521.12 189.78 516.94 194.39 515.60 Z" />
<path fill="#25d17d" opacity="1.00" d=" M 247.38 515.60 C 255.65 512.67 264.71 520.46 263.98 528.96 C 264.12 536.66 256.46 543.40 248.81 541.85 C 241.32 540.61 236.40 532.28 238.46 525.05 C 239.57 520.69 243.02 516.88 247.38 515.60 Z" />
<path fill="#25d17d" opacity="1.00" d=" M 53.00 700.00 C 88.00 700.00 123.00 700.00 158.00 700.00 C 158.00 709.00 158.00 718.00 158.00 727.00 C 123.00 727.00 88.00 727.00 53.00 727.00 C 53.00 718.00 53.00 709.00 53.00 700.00 Z" />
<path fill="#25d17d" opacity="1.00" d=" M 194.41 700.59 C 202.34 697.82 211.12 704.89 210.98 713.06 C 211.60 720.65 204.57 727.87 196.90 726.97 C 189.21 726.45 183.57 718.24 185.30 710.83 C 186.16 706.11 189.80 701.94 194.41 700.59 Z" />
<path fill="#25d17d" opacity="1.00" d=" M 247.43 700.58 C 255.32 697.85 264.06 704.84 263.97 712.97 C 264.65 720.60 257.58 727.89 249.87 726.97 C 242.59 726.44 237.02 718.99 238.15 711.86 C 238.63 706.72 242.47 702.02 247.43 700.58 Z" />
</g>
</svg>
